<svg width="102" height="101" viewBox="0 0 102 101" fill="none" xmlns="http://www.w3.org/2000/svg">
<path d="M29.9583 71.5417H72.0417V63.125H29.9583V71.5417ZM51 58.9167L67.8333 42.0833L61.9417 36.1917L55.2083 42.7146V25.25H46.7917V42.7146L40.0583 36.1917L34.1667 42.0833L51 58.9167ZM51 92.5833C45.1785 92.5833 39.7076 91.4779 34.5875 89.2672C29.4674 87.0564 25.0135 84.0586 21.226 80.2739C17.4385 76.4864 14.4408 72.0326 12.2328 66.9125C10.0249 61.7923 8.91947 56.3215 8.91666 50.5C8.91666 44.6785 10.0221 39.2076 12.2328 34.0875C14.4436 28.9674 17.4413 24.5135 21.226 20.726C25.0135 16.9385 29.4674 13.9408 34.5875 11.7328C39.7076 9.52485 45.1785 8.41946 51 8.41666C56.8215 8.41666 62.2924 9.52205 67.4125 11.7328C72.5326 13.9436 76.9865 16.9413 80.774 20.726C84.5615 24.5135 87.5606 28.9674 89.7714 34.0875C91.9821 39.2076 93.0861 44.6785 93.0833 50.5C93.0833 56.3215 91.9779 61.7923 89.7672 66.9125C87.5564 72.0326 84.5586 76.4864 80.774 80.2739C76.9865 84.0614 72.5326 87.0606 67.4125 89.2714C62.2924 91.4821 56.8215 92.5861 51 92.5833ZM51 84.1666C60.3986 84.1666 68.3594 80.9052 74.8823 74.3823C81.4052 67.8594 84.6667 59.8986 84.6667 50.5C84.6667 41.1014 81.4052 33.1406 74.8823 26.6177C68.3594 20.0948 60.3986 16.8333 51 16.8333C41.6014 16.8333 33.6406 20.0948 27.1177 26.6177C20.5948 33.1406 17.3333 41.1014 17.3333 50.5C17.3333 59.8986 20.5948 67.8594 27.1177 74.3823C33.6406 80.9052 41.6014 84.1666 51 84.1666Z" fill="#0096D2"/>
</svg>
